# xmcd
#
# Track frame offsets:
#	150
#	35505
#	50987
#	78968
#	101581
#	117697
#	135502
#	176504
#	198827
#	223014
#	246417
#
# Disc length: 4328 seconds
#
# Revision: 0
# Processed by: cddbd v1.5.2PL0 Copyright (c) Steve Scherf et al.
# Submitted via: EasyCDDAExtractor 2010.6.0.0
#
DISCID=a110e60b
DTITLE=Various Artist - Nacht der Oper - Orchester der Deutschen Oper Berlin
DYEAR=1900
DGENRE=
TTITLE0=Verdi - Ouvertüre zu Nabucco
TTITLE1=Wagner - Tannhäuser "dich teure Halle..."
TTITLE2=Wagner - Tannhäuser "O du mein holder Abendstern"
TTITLE3=Mozart - Le nozze di Figaro "Hai gia vinta la causa"
TTITLE4=Mozart - Cosi fan tutte "Ah scostati!... Smanie implacabili"
TTITLE5=Gounod - Faust "Avant de quitter ces lieux"
TTITLE6=Verdi - Preludio Zweiter Akt, Un ballo In maschera und Arie "Eco I orr
TTITLE6=ido campo. Madall arido stelo divulsa
TTITLE7=Rossini - Il barbiere di Siviglia "Largo al factotum"
TTITLE8=Verdi - Don Carlos "O don fatale" Chariklia Mavropoulou, Mezzosopran
TTITLE9=Puccini - Madama Butterfly "un bel di"
TTITLE10=Wagner - Lohengrin "erhebe Dich, Genossin meiner Schmach"
EXTD=
EXTT0=
EXTT1=
EXTT2=
EXTT3=
EXTT4=
EXTT5=
EXTT6=
EXTT7=
EXTT8=
EXTT9=
EXTT10=
PLAYORDER=
